<svg id="Layer_1" data-name="Layer 1" xmlns="http://www.w3.org/2000/svg" viewBox="0 0 1404.31 1070.05">
  <title>casualsparks-text</title>
  <g>
    <polygon points="585.81 745.49 558.76 916.6 613.96 916.6 586.91 745.49 585.81 745.49" style="fill: none"/>
    <path d="M389,892.83H362.5v122.54H389q33.66,0,46.09-13t12.42-48.3q0-35.32-12.42-48.3T389,892.83Z" transform="translate(-6.87 -170.52)" style="fill: none"/>
    <path d="M1371.79,219.4c-19.7,0-62.73,157.56-83.89,293.24,36.47-66.38,90.45-188.2,91.18-277.2C1379.09,225.23,1375.44,219.4,1371.79,219.4Z" transform="translate(-6.87 -170.52)" style="fill: none"/>
    <path d="M819.54,892.83H795.25v122.54h24.29q28.15,0,39.47-13.25t11.31-48q0-35.32-11.31-48.3T819.54,892.83Z" transform="translate(-6.87 -170.52)" style="fill: none"/>
    <path d="M394.35,466.69c-30.64,0-67.84,128.39-67.84,194.77,0,22.61,4.38,37.93,15.32,37.93,33.56,0,75.13-118.9,75.13-186.74C417,485.65,410.4,466.69,394.35,466.69Z" transform="translate(-6.87 -170.52)" style="fill: none"/>
    <path d="M1085.13,466.69c-30.64,0-67.84,128.39-67.84,194.77,0,22.61,4.38,37.93,15.32,37.93,33.56,0,75.13-118.9,75.13-186.74C1107.74,485.65,1101.18,466.69,1085.13,466.69Z" transform="translate(-6.87 -170.52)" style="fill: none"/>
    <path d="M1385.65,579.75c-31.37,81-59.09,126.2-82.43,126.2-16.78,0-27.72-15.32-27.72-64.19,0-23.34,2.19-51.79,5.83-83.16,29.18-35.74,78.05-107.23,108-202.79,7.29-22.61,21.88-74.41,21.88-117.44,0-37.2-10.94-67.84-48.87-67.84C1320,170.52,1274,253,1241.22,436,1231.8,489.76,1224.81,538,1221,579.76h-.24c-35,90.45-65.65,125.47-73.68,125.47-3.65,0-5.83-5.11-5.83-16a96.84,96.84,0,0,1,1.46-19c10.21-72.22,24.07-151,46-248h-51.79l-8,40.85c-5.11-32.83-20.42-48.87-47.42-48.87-51.43,0-95.62,83.57-115,168.71-31.5,81.78-55.21,121.62-73.94,121.62-6.56,0-14.59-3.65-14.59-24.8,0-59.82,21.15-144.43,46.69-258.23h-62c-8.75,36.47-22.61,90.45-33.56,152.46L824.71,598c-15.32,63.46-37.2,106.5-48.87,106.5-6.56,0-14.59-3.65-14.59-24.8,0-29.18,6.57-63.46,14.59-104.31,18.24-93.37,32.83-153.92,32.83-153.92h-62s-14.59,57.63-32.83,152.46q-.71,3.78-1.39,7.56c-10.75,27.81-22.23,54.17-35.8,76.33v-2.92c0-81.7-71.49-157.56-73.68-218.84a909.82,909.82,0,0,0,21.88-106.5l-49.6-9.48c-11.67,35.74-16.78,67.84-16.78,97,0,24.8,3.65,48.14,8.75,70-13.86,35-27.72,67.84-37.2,92.64v0c-35,90.43-65.64,125.44-73.66,125.44-3.65,0-5.84-5.11-5.84-16a96.84,96.84,0,0,1,1.46-19c10.21-72.22,24.07-151,46-248H446.14l-8,40.85c-5.11-32.83-20.42-48.87-47.42-48.87-51.37,0-95.52,83.37-114.92,168.41C243.89,660.91,205,699.38,170.42,699.38c-37.2,0-51.79-37.93-51.79-83.89,0-69.3,32.83-156.1,70.76-156.1,10.21,0,14.59,10.21,14.59,25.53,0,21.88-9.48,54-24.07,78.78l46.69,24.8c14.59-31.37,24.07-67.11,24.07-98.48,0-42.31-16.78-75.86-58.36-75.86-81,0-132,120.36-132,219.57,0,69.3,24.8,127.66,81.7,127.66,52.08,0,94.56-51.3,123.44-102.62q-.17,5.06-.17,10c0,53.25,14.59,92.64,50.33,92.64,42.31,0,67.84-38.66,84.62-83.16v8c0,50.33,13.13,71.49,36.47,71.49,33.56,0,69.3-51.06,113.8-167.78v0c8-21.88,17.5-44.48,25.52-68.54,16,51.79,37.2,95.56,37.2,140.79,0,26.26-10.21,39.39-28.45,39.39-13.86,0-22.61-5.84-32.1-21.88l-44.5,32.1c10.21,29.91,37.93,49.6,72.22,49.6,56.37,0,93.32-42.95,122.07-99.45q-.25,6.07-.25,11.91c0,48.87,13.13,83.89,51.79,83.89,28.45,0,49.6-24.07,65.65-59.82,4.38,35.74,19,59.82,51.06,59.82,39.47,0,64-36.85,85.37-85.81.58,51.63,15.29,89.46,50.31,89.46,42.31,0,67.84-38.66,84.62-83.16v8c0,50.33,13.13,71.49,36.47,71.49,27.48,0,56.44-34.27,90.46-110.79.68,73.08,18.35,114.44,61.25,114.44,47.41,0,81-54.71,124-171.42v-.73C1403.16,585.59,1389.3,579.75,1385.65,579.75ZM1371.79,219.4c3.65,0,7.29,5.84,7.29,16-.73,89-54.71,210.81-91.18,277.2C1309.06,377,1352.1,219.4,1371.79,219.4Zm-1030,480c-10.94,0-15.32-15.32-15.32-37.93,0-66.38,37.2-194.77,67.84-194.77,16,0,22.61,19,22.61,46C417,580.48,375.38,699.38,341.83,699.38Zm690.78,0c-10.94,0-15.32-15.32-15.32-37.93,0-66.38,37.2-194.77,67.84-194.77,16,0,22.61,19,22.61,46C1107.74,580.48,1066.16,699.38,1032.61,699.38Z" transform="translate(-6.87 -170.52)" style="fill: #fff"/>
    <path d="M89.69,426.52c.09.76.61.95,1.16.42l58.4-56.39a3,3,0,0,1,2.36-.69L231.17,386c.75.15,1.09-.29.75-1l-35.57-73a3,3,0,0,1,.08-2.46l39.95-70.66c.38-.67.06-1.12-.69-1l-80.44,11.3a3,3,0,0,1-2.32-.83L98.05,188.54c-.52-.56-1-.41-1.18.34l-14.09,80a3,3,0,0,1-1.51,1.95L7.41,304.46c-.7.32-.71.87,0,1.23l71.69,38.15a3,3,0,0,1,1.39,2Z" transform="translate(-6.87 -170.52)" style="fill: #fff"/>
    <path d="M249.91,1064.5a222.13,222.13,0,0,0-24-27.32q-12.42-11.86-32.29-28.43-29.26-25.38-43.33-42.23T136.2,929.81q0-39.19,34.22-39.19,13.79,0,24.29,10.21t12.14,33.95L272,927.61q-4.42-43.6-29.25-70.1T177,831Q126.81,831,98.94,857T71.07,930.37a122,122,0,0,0,24.29,74.24,215.43,215.43,0,0,0,23.18,26.22Q130.67,1042.42,150,1059q30.91,25.4,45.54,43.33t14.63,42.23q0,17.67-10.76,27t-29,9.38q-17.12,0-27.87-15.46t-13-44.71l-65.13,9.38q2.2,46.92,29.53,78.66t73.14,31.74q49.12,0,78.66-27t29.53-75.07a113.66,113.66,0,0,0-6.9-40A135,135,0,0,0,249.91,1064.5Z" transform="translate(-6.87 -170.52)" style="fill: #fff"/>
    <path d="M516,954.1q0-62.93-29.81-90.25t-93.84-27.32H294.06v398.53H362.5V1071.67h29.81q64,0,93.84-27.32T516,954.1Zm-80.87,48.3q-12.42,13-46.09,13H362.5V892.83H389q33.66,0,46.09,13t12.42,48.3Q447.51,989.43,435.09,1002.4Z" transform="translate(-6.87 -170.52)" style="fill: #fff"/>
    <path d="M550.73,836.53l-73.41,398.53h66.24l12.14-88.32h75.07l12.14,88.32h66.24L635.74,836.53Zm14.9,250.6,27-171.11h1.1l27,171.11Z" transform="translate(-6.87 -170.52)" style="fill: #fff"/>
    <path d="M925.24,1021.44q13.52-23.73,13.52-67.34,0-62.37-28.43-90t-87.49-27.6h-96v398.53h68.45V1071.67q8.82,0,19-.55t16.28-1.1l48.57,165H948.7l-58-180.5Q911.71,1045.18,925.24,1021.44ZM859,1002.12q-11.32,13.25-39.47,13.25H795.25V892.83h24.29q28.15,0,39.47,13t11.31,48.3Q870.32,988.87,859,1002.12Z" transform="translate(-6.87 -170.52)" style="fill: #fff"/>
    <polygon points="1169.24 666 1100.8 666 1029.04 813.38 1027.94 813.38 1027.94 666 959.49 666 959.49 1064.53 1027.94 1064.53 1027.94 923.23 1052.22 879.07 1053.33 879.07 1109.08 1064.53 1178.63 1064.53 1095.28 814.49 1169.24 666" style="fill: #fff"/>
    <path d="M1360.47,1064.5a222.17,222.17,0,0,0-24-27.32q-12.42-11.86-32.29-28.43-29.26-25.38-43.33-42.23t-14.08-36.71q0-39.19,34.22-39.19,13.79,0,24.29,10.21t12.14,33.95l65.13-7.18q-4.42-43.6-29.25-70.1T1287.61,831q-50.24,0-78.11,25.94t-27.87,73.41a122,122,0,0,0,24.29,74.24,215.43,215.43,0,0,0,23.18,26.22q12.13,11.59,31.46,28.15,30.91,25.4,45.54,43.33t14.63,42.23q0,17.67-10.76,27t-29,9.38q-17.12,0-27.87-15.46t-13-44.71l-65.13,9.38q2.2,46.92,29.53,78.66t73.14,31.74q49.12,0,78.66-27t29.53-75.07a113.67,113.67,0,0,0-6.9-40A135,135,0,0,0,1360.47,1064.5Z" transform="translate(-6.87 -170.52)" style="fill: #fff"/>
  </g>
</svg>
